<svg width="24" height="24" viewBox="0 0 24 24" fill="none" xmlns="http://www.w3.org/2000/svg">
<rect width="24" height="24" fill="white"/>
<g clipPath="url(#clip0)">
<path d="M20.2462 4.5456C20.2298 4.42639 20.1257 4.36025 20.0393 4.35305C19.9535 4.34585 18.2729 4.32031 18.2729 4.32031C18.2729 4.32031 16.8674 2.95544 16.7286 2.8166C16.5898 2.67775 16.3186 2.71967 16.2132 2.7511C16.2119 2.75176 15.9493 2.83297 15.5072 2.96985C15.4332 2.73015 15.3244 2.43543 15.1692 2.1394C14.6689 1.18452 13.936 0.679574 13.0505 0.678268C13.0492 0.678268 13.0486 0.678268 13.0473 0.678268C12.9857 0.678268 12.9248 0.684161 12.8633 0.689398C12.8371 0.657962 12.8109 0.627183 12.7834 0.597053C12.3976 0.184452 11.9031 -0.0166104 11.3104 0.00107257C10.1669 0.0338189 9.02803 0.85968 8.10458 2.32671C7.45489 3.35887 6.96041 4.65565 6.82026 5.65963C5.50713 6.06633 4.58892 6.35056 4.56862 6.35713C3.90583 6.56538 3.88488 6.58568 3.79843 7.21051C3.73424 7.68268 2 21.093 2 21.093L16.5335 23.6066L22.8325 22.0406C22.8325 22.0406 20.2626 4.66481 20.2462 4.5456ZM14.7796 3.19514C14.4449 3.29862 14.0644 3.41651 13.6518 3.54422C13.6433 2.96527 13.5745 2.15971 13.3047 1.46352C14.1724 1.62791 14.5994 2.60964 14.7796 3.19514ZM12.8914 3.77999C12.1297 4.01575 11.2986 4.27314 10.4649 4.5312C10.6994 3.63329 11.1441 2.73932 11.6903 2.15316C11.8933 1.93507 12.1775 1.69209 12.5142 1.55324C12.8305 2.21341 12.8993 3.14799 12.8914 3.77999ZM11.3333 0.762094C11.6018 0.756201 11.8278 0.815146 12.021 0.942201C11.7119 1.10266 11.4132 1.33319 11.1329 1.6338C10.4066 2.41316 9.84993 3.62281 9.62791 4.78989C8.93565 5.00404 8.25845 5.2143 7.63496 5.40685C8.0286 3.56976 9.5683 0.813179 11.3333 0.762094Z" fill="#95BF47"/>
<path d="M20.0399 4.35372C19.9541 4.34652 18.2735 4.32098 18.2735 4.32098C18.2735 4.32098 16.8681 2.95611 16.7292 2.81726C16.6775 2.76552 16.6074 2.73867 16.5341 2.72754L16.5347 23.6059L22.8332 22.0407C22.8332 22.0407 20.2632 4.66548 20.2469 4.54627C20.2305 4.42705 20.1257 4.36092 20.0399 4.35372Z" fill="#5E8E3E"/>
<path d="M13.0427 7.59235L12.3111 10.3293C12.3111 10.3293 11.4951 9.95792 10.5278 10.0188C9.10918 10.1086 9.09411 11.0032 9.10855 11.2278C9.18582 12.4519 12.4061 12.7191 12.5869 15.5864C12.729 17.8419 11.3903 19.3849 9.46154 19.5067C7.14637 19.6528 5.87189 18.2873 5.87189 18.2873L6.36244 16.2007C6.36244 16.2007 7.64541 17.1687 8.67234 17.1038C9.343 17.0613 9.58269 16.5157 9.55845 16.1299C9.45761 14.5332 6.83527 14.6275 6.6696 12.0039C6.53008 9.79618 7.98011 7.55895 11.1794 7.35723C12.412 7.27799 13.0427 7.59235 13.0427 7.59235Z" fill="white"/>
</g>
<defs>
<clipPath id="clip0">
<rect width="20.8525" height="24" fill="white" transform="translate(2)"/>
</clipPath>
</defs>
</svg>
